Coordinates
version=1
nRows=9
nColumns=42
inDegrees=yes

Units are S.I. units (second, meters, Newtons, ...)
If the header above contains a line with 'inDegrees', this indicates whether rotational values are in degrees (yes) or radians (no).

endheader
time	pelvis_tilt	pelvis_list	pelvis_rotation	pelvis_tx	pelvis_ty	pelvis_tz	hip_flexion_r	hip_adduction_r	hip_rotation_r	knee_angle_r	knee_angle_r_beta	ankle_angle_r	subtalar_angle_r	mtp_angle_r	hip_flexion_l	hip_adduction_l	hip_rotation_l	knee_angle_l	knee_angle_l_beta	ankle_angle_l	subtalar_angle_l	mtp_angle_l	lumbar_extension	lumbar_bending	lumbar_rotation	sh_tx_r	sh_ty_r	sh_tz_r	sh_plane_elev_r	sh_elev_r	sh_axial_rot_r	elbow_flex_r	pro_sup_r	sh_tx_l	sh_ty_l	sh_tz_l	sh_plane_elev_l	sh_elev_l	sh_axial_rot_l	elbow_flex_l	pro_sup_l
      2.15254240	     -2.86225737	      0.63200140	     -0.54983961	      0.25346275	      0.94597731	     -0.09247415	     -0.11233616	      0.02926851	     -4.87028703	      4.63229499	      0.08084880	     -2.21643636	    -12.73425033	     -7.49999987	     -1.47725497	      0.90831099	     -2.84672509	      0.96507237	      0.01684369	      7.00289710	      5.43519492	     -7.49999987	      2.85922275	     -6.49230509	     13.41076436	     -0.01102503	     -0.01725829	     -0.00852892	    -21.48791093	    128.06997460	    -32.15066131	     15.81802493	      8.78623398	      0.01379740	      0.00561771	     -0.00806795	     57.38000584	    155.42107090	    -20.07626149	      1.64425264	     21.31378541
      2.16949150	     -2.84741782	      0.62933060	     -0.49745731	      0.25430147	      0.94760564	     -0.09305453	     -0.17404061	      0.01894564	     -5.07910604	      4.57346897	      0.07982209	     -2.24043462	    -12.46025655	     -7.49999987	     -1.49722964	      0.88176454	     -2.82213380	      1.00496781	      0.01754000	      6.90745567	      5.30500123	     -7.49999987	      3.05629815	     -6.46714594	     12.95854786	     -0.01205044	     -0.01752653	     -0.00856000	    -18.77643801	    129.34016588	    -31.53918428	     13.00015279	      9.00260279	      0.01359930	      0.00582797	     -0.00802047	     57.71078006	    155.87474116	    -19.51700243	      1.61885022	     21.29682134
      2.18644070	     -3.10570956	      0.64604070	     -0.39868663	      0.25436383	      0.94578798	     -0.09348864	      0.24155784	     -0.01345793	     -5.43388202	      4.85203745	      0.08468403	     -1.90472466	    -11.97791182	     -7.49999987	     -0.89848894	      0.85391453	     -2.89598124	      1.69026070	      0.02950061	      7.02978950	      5.12772843	     -7.49999987	      3.46993107	     -6.43536014	     11.96492275	     -0.00682153	     -0.01461656	     -0.00735169	    -18.96984056	    129.82709299	    -34.68959527	     15.22944338	     14.66174078	      0.01056784	      0.00686223	     -0.00673932	     56.19810552	    156.47578604	    -21.11378915	      3.54219161	     24.21254679
      2.20338980	     -2.84842046	      0.65794164	     -0.42248271	      0.25677338	      0.94620930	     -0.09220641	     -0.33134582	      0.05876399	     -5.36585772	      4.36725654	      0.07622301	     -2.22909792	    -12.24194784	     -7.49999987	     -1.56544517	      0.86037684	     -3.00077363	      1.06138531	      0.01852467	      6.62281975	      5.28566783	     -7.49999987	      3.31250970	     -5.74077476	      7.98584051	     -0.01389342	     -0.01782610	     -0.00859396	     -6.07631047	    133.42629678	    -28.13572321	      5.48985347	      7.84361364	      0.00451134	      0.00401768	     -0.00782705	     50.13641600	    156.76771969	    -20.11536756	      1.90325595	     19.15245190
      2.22033900	     -2.79421920	      0.68049649	     -0.40734998	      0.25482413	      0.94419188	     -0.09451967	     -0.46711043	      0.05964534	     -5.43708511	      4.31173691	      0.07525401	     -2.09369004	    -12.20459722	     -7.49999987	     -1.63572650	      0.91581087	     -3.03908594	      1.06312528	      0.01855504	      6.78639732	      5.42906989	     -7.49999987	      3.25574935	     -5.57246958	      7.98167726	     -0.01370229	     -0.01777369	     -0.00856186	     -6.10562640	    134.74398040	    -28.82458793	      5.58621926	      8.50775833	      0.00456617	      0.00416462	     -0.00780650	     50.30741645	    157.31403558	    -20.50820373	      1.85203946	     19.68300603
      2.23728810	     -2.96394735	      0.71776178	     -0.36507742	      0.25567808	      0.94826615	     -0.09286974	     -0.32358222	      0.05872882	     -5.73117261	      4.28089408	      0.07471570	     -1.98468255	    -11.96349229	     -7.49999987	     -1.48034768	      0.92634893	     -3.05215157	      1.03897612	      0.01813355	      6.66603623	      5.29231134	     -7.49999987	      3.73354742	     -5.61188399	      7.69892773	     -0.01452653	     -0.01777930	     -0.00849161	     -4.23512126	    135.63125814	    -28.82570303	      4.52855234	      8.33050050	      0.00447339	      0.00458334	     -0.00768247	     51.49688709	    157.72930937	    -20.67043804	      1.78659772	     19.79752561
      2.25423730	     -3.03073479	      0.72422270	     -0.33176581	      0.25361782	      0.94431257	     -0.09390809	     -0.28332091	      0.06436743	     -5.88289756	      4.19819112	      0.07327226	     -2.04047224	    -12.05611972	     -7.49999987	     -1.36965946	      0.95473814	     -3.06934122	      1.02049384	      0.01781098	      6.68840890	      5.26003024	     -7.49999987	      3.89422146	     -5.39340021	      7.31352229	     -0.01431422	     -0.01773342	     -0.00844213	     -2.85199949	    137.00168147	    -27.87330942	      4.00825534	      7.68832330	      0.00401333	      0.00445790	     -0.00762697	     51.17029370	    158.01595657	    -20.39280612	      1.81076102	     19.63701012
      2.27118640	     -3.05988190	      0.76633079	     -0.33077146	      0.25508117	      0.94650753	     -0.09388425	     -0.29468907	      0.03322441	     -6.09886540	      4.09902825	      0.07154154	     -2.06709658	    -11.89527104	     -7.49999987	     -1.31223158	      1.01630172	     -3.14191518	      0.99298079	      0.01733078	      6.54985803	      5.41271496	     -7.49999987	      3.98801338	     -5.34830641	      7.08328811	     -0.01450917	     -0.01777388	     -0.00842417	     -1.60570948	    138.16003043	    -27.63595312	      3.46097310	      7.48252306	      0.00374750	      0.00419279	     -0.00756715	     51.62134023	    158.46633000	    -20.47171330	      1.85646128	     19.76512465
      2.28813560	     -3.05202635	      0.79217573	     -0.35891717	      0.25533839	      0.94872817	     -0.09351598	     -0.36627678	      0.03086964	     -6.37197975	      4.00225976	      0.06985261	     -1.90356213	    -11.46694029	     -7.49999987	     -1.31890856	      1.06698307	     -3.14101989	      0.94377159	      0.01647192	      6.39793544	      5.55572315	     -7.49999987	      4.00206717	     -5.05827357	      5.80021033	     -0.01392106	     -0.01790812	     -0.00844893	      1.38951850	    139.73152943	    -27.39714274	      2.91335770	      7.09249416	      0.00106926	      0.00322611	     -0.00750045	     49.50384871	    158.80382478	    -20.71749605	      2.07862067	     18.48018467
